PathFileType	3	(X/Y/Z)	running_2__fused_aligned.trc
DataRate	CameraRate	NumFrames	NumMarkers	Units	OrigDataRate	OrigDataStartFrame	OrigNumFrames
100.0	100.0	17	19	mm	100.0	5832	6395
Frame#	Time	pelvis			neck			head			hip_left			hip_right			knee_left			knee_right			ankle_left			ankle_right			heel_left			heel_right			toe_left			toe_right			shoulder_left			shoulder_right			elbow_left			elbow_right			wrist_left			wrist_right			
		X1	Y1	Z1	X2	Y2	Z2	X3	Y3	Z3	X4	Y4	Z4	X5	Y5	Z5	X6	Y6	Z6	X7	Y7	Z7	X8	Y8	Z8	X9	Y9	Z9	X10	Y10	Z10	X11	Y11	Z11	X12	Y12	Z12	X13	Y13	Z13	X14	Y14	Z14	X15	Y15	Z15	X16	Y16	Z16	X17	Y17	Z17	X18	Y18	Z18	X19	Y19	Z19	
5832	58.31000	-6.522820	949.506174	209.738550	-33.556301	1488.130464	367.817008	-32.188536	1570.032022	517.235834	69.213359	951.500702	203.622209	-82.259091	947.511616	215.854964	112.394751	531.113926	241.270286	-90.404781	533.526772	336.176972	87.649148	253.855806	-34.334731	-106.168387	138.014850	225.167442	76.384283	245.166237	-85.080188	-110.561536	90.508544	186.234095	92.096438	87.272084	23.163391	-86.366274	76.180655	408.295984	132.626408	1468.544359	320.206624	-196.730418	1445.370125	323.330105	231.680119	1237.726678	226.939752	-293.259627	1221.641042	203.598128	148.794494	1147.414251	398.524404	-233.760980	1074.097860	357.665215
5833	58.32000	-7.455070	950.552660	211.106572	-34.092745	1489.213679	368.772814	-32.213050	1570.830517	518.116268	68.307970	952.494541	205.184815	-83.218211	948.610759	217.028381	111.508285	532.977222	248.729084	-92.619257	533.067437	329.486399	87.408303	254.106065	-22.214810	-107.164585	138.121087	215.450508	76.371793	245.015419	-72.577027	-111.214538	91.072020	176.252952	90.625714	88.914226	36.187271	-87.824344	74.810975	396.886302	131.084099	1470.150813	319.413334	-197.279816	1446.299776	326.053364	229.235724	1241.672028	222.160646	-292.845567	1220.734221	210.400532	150.532933	1149.756645	393.177716	-228.968925	1077.852759	365.392258
5834	58.33000	-8.387321	951.599146	212.474593	-34.629190	1490.296894	369.728619	-32.237563	1571.629013	518.996703	67.402582	953.488380	206.747421	-84.177331	949.709901	218.201798	110.621819	534.840517	256.187881	-94.833733	532.608103	322.795826	87.167457	254.356324	-10.094888	-108.160784	138.227324	205.733573	76.359303	244.864600	-60.073866	-111.867539	91.635496	166.271809	89.154989	90.556369	49.211152	-89.282414	73.441295	385.476619	129.541790	1471.757266	318.620043	-197.829214	1447.229427	328.776624	226.791329	1245.617378	217.381541	-292.431507	1219.827401	217.202935	152.271372	1152.099040	387.831028	-224.176870	1081.607657	373.119301
5835	58.34000	-9.319572	952.645633	213.842615	-35.165635	1491.380110	370.684425	-32.262076	1572.427508	519.877137	66.497193	954.482219	208.310028	-85.136451	950.809043	219.375215	109.735353	536.703813	263.646679	-97.048209	532.148769	316.105252	86.926612	254.606583	2.025034	-109.156982	138.333561	196.016638	76.346814	244.713781	-47.570706	-112.520541	92.198972	156.290666	87.684264	92.198512	62.235032	-90.740483	72.071615	374.066936	127.999481	1473.363720	317.826752	-198.378612	1448.159078	331.499883	224.346934	1249.562728	212.602435	-292.017448	1218.920580	224.005339	154.009812	1154.441434	382.484340	-219.384814	1085.362556	380.846344
5836	58.35000	-10.251822	953.692119	215.210637	-35.702079	1492.463325	371.640230	-32.286589	1573.226003	520.757571	65.591805	955.476058	209.872634	-86.095571	951.908185	220.548632	108.848887	538.567108	271.105476	-99.262685	531.689434	309.414679	86.685766	254.856842	14.144956	-110.153180	138.439798	186.299703	76.334324	244.562962	-35.067545	-113.173542	92.762448	146.309523	86.213540	93.840654	75.258913	-92.198553	70.701935	362.657254	126.457172	1474.970174	317.033461	-198.928010	1449.088729	334.223142	221.902540	1253.508078	207.823329	-291.603388	1218.013759	230.807742	155.748251	1156.783829	377.137652	-214.592759	1089.117455	388.573388
5837	58.36000	-11.184073	954.738605	216.578658	-36.238524	1493.546540	372.596036	-32.311103	1574.024498	521.638005	64.686416	956.469897	211.435241	-87.054691	953.007328	221.722050	107.962422	540.430404	278.564274	-101.477161	531.230100	302.724106	86.444920	255.107101	26.264878	-111.149379	138.546035	176.582768	76.321835	244.412143	-22.564385	-113.826544	93.325924	136.328380	84.742815	95.482797	88.282793	-93.656623	69.332255	351.247571	124.914863	1476.576627	316.240171	-199.477408	1450.018380	336.946402	219.458145	1257.453428	203.044223	-291.189328	1217.106939	237.610146	157.486690	1159.126223	371.790964	-209.800704	1092.872353	396.300431
5838	58.37000	-10.426331	953.631585	216.812022	-35.050357	1492.214294	372.387085	-30.603642	1572.658173	521.480893	65.410849	955.361827	211.866824	-86.263628	951.901355	221.757196	107.397156	540.284672	286.863444	-102.136710	528.760632	296.783403	85.869387	252.166211	39.838541	-111.670871	143.059947	161.093558	76.077140	240.491171	-8.523132	-113.981147	99.811590	120.139845	82.799326	95.866238	104.947033	-95.496073	69.156329	329.890520	125.595749	1475.514717	313.990291	-198.752251	1447.806753	338.372882	218.912226	1258.021967	196.069329	-288.510174	1211.927725	243.270383	163.966476	1154.995785	364.262389	-202.552505	1092.566188	404.506219
5839	58.38000	-9.668590	952.524564	217.045385	-33.862189	1490.882047	372.178135	-28.896181	1571.291848	521.323781	66.135282	954.253757	212.298408	-85.472565	950.795382	221.792343	106.831890	540.138941	295.162613	-102.796258	526.291164	290.842701	85.293855	249.225321	53.412203	-112.192364	147.573858	145.604349	75.832446	236.570200	5.518121	-114.135750	106.297255	103.951310	80.855837	96.249680	121.611272	-97.335524	68.980404	308.533469	126.276636	1474.452807	311.740411	-198.027093	1445.595125	339.799363	218.366308	1258.590507	189.094435	-285.831019	1206.748512	248.930621	170.446262	1150.865346	356.733815	-195.304306	1092.260023	412.712007
5840	58.39000	-8.910848	951.417544	217.278749	-32.674022	1489.549801	371.969185	-27.188721	1569.925523	521.166669	66.859714	953.145687	212.729992	-84.681502	949.689410	221.827490	106.266624	539.993209	303.461783	-103.455807	523.821697	284.901998	84.718322	246.284431	66.985866	-112.713856	152.087770	130.115139	75.587751	232.649228	19.559373	-114.290354	112.782921	87.762776	78.912348	96.633121	138.275512	-99.174974	68.804478	287.176418	126.957522	1473.390897	309.490532	-197.301936	1443.383497	341.225843	217.820390	1259.159047	182.119541	-283.151864	1201.569299	254.590858	176.926048	1146.734908	349.205240	-188.056108	1091.953858	420.917795
5841	58.40000	-8.153107	950.310523	217.512113	-31.485855	1488.217555	371.760235	-25.481260	1568.559198	521.009557	67.584147	952.037617	213.161576	-83.890439	948.583437	221.862636	105.701358	539.847477	311.760952	-104.115356	521.352229	278.961296	84.142789	243.343541	80.559528	-113.235349	156.601681	114.625929	75.343057	228.728257	33.600626	-114.444957	119.268586	71.574241	76.968859	97.016563	154.939751	-101.014424	68.628552	265.819368	127.638408	1472.328987	307.240652	-196.576778	1441.171870	342.652324	217.274472	1259.727587	175.144647	-280.472709	1196.390085	260.251096	183.405835	1142.604469	341.676665	-180.807909	1091.647693	429.123583
5842	58.41000	-7.395365	949.203502	217.745476	-30.297687	1486.885309	371.551285	-23.773800	1567.192873	520.852445	68.308580	950.929547	213.593160	-83.099376	947.477465	221.897783	105.136092	539.701746	320.060122	-104.774904	518.882761	273.020594	83.567256	240.402651	94.133191	-113.756841	161.115593	99.136719	75.098362	224.807285	47.641878	-114.599560	125.754252	55.385706	75.025370	97.400004	171.603991	-102.853874	68.452627	244.462317	128.319294	1471.267077	304.990772	-195.851621	1438.960242	344.078804	216.728553	1260.296127	168.169753	-277.793555	1191.210872	265.911333	189.885621	1138.474030	334.148090	-173.559710	1091.341528	437.329372
5843	58.42000	-6.637624	948.096482	217.978840	-29.109520	1485.553063	371.342334	-22.066339	1565.826547	520.695333	69.033013	949.821477	214.024744	-82.308313	946.371492	221.932930	104.570826	539.556014	328.359292	-105.434453	516.413294	267.079891	82.991723	237.461761	107.706853	-114.278333	165.629504	83.647509	74.853668	220.886313	61.683131	-114.754163	132.239917	39.197171	73.081881	97.783446	188.268230	-104.693325	68.276701	223.105266	129.000180	1470.205167	302.740893	-195.126463	1436.748614	345.505285	216.182635	1260.864667	161.194859	-275.114400	1186.031658	271.571571	196.365407	1134.343592	326.619516	-166.311511	1091.035363	445.535160
5844	58.43000	-5.879882	946.989461	218.212204	-27.921353	1484.220816	371.133384	-20.358878	1564.460222	520.538221	69.757445	948.713407	214.456328	-81.517249	945.265519	221.968077	104.005560	539.410282	336.658461	-106.094001	513.943826	261.139189	82.416190	234.520871	121.280516	-114.799826	170.143416	68.158300	74.608973	216.965342	75.724383	-114.908767	138.725583	23.008636	71.138392	98.166888	204.932470	-106.532775	68.100775	201.748215	129.681066	1469.143257	300.491013	-194.401306	1434.536987	346.931766	215.636717	1261.433207	154.219965	-272.435245	1180.852445	277.231808	202.845193	1130.213153	319.090941	-159.063313	1090.729197	453.740948
5845	58.44000	-5.122141	945.882441	218.445567	-26.733185	1482.888570	370.924434	-18.651418	1563.093897	520.381109	70.481878	947.605337	214.887912	-80.726186	944.159547	222.003223	103.440294	539.264551	344.957631	-106.753550	511.474358	255.198487	81.840657	231.579981	134.854179	-115.321318	174.657327	52.669090	74.364279	213.044370	89.765636	-115.063370	145.211248	6.820101	69.194903	98.550329	221.596709	-108.372225	67.924850	180.391164	130.361952	1468.081347	298.241133	-193.676148	1432.325359	348.358246	215.090798	1262.001747	147.245071	-269.756090	1175.673232	282.892045	209.324979	1126.082715	311.562366	-151.815114	1090.423032	461.946736
5846	58.45000	-4.364399	944.775420	218.678931	-25.545018	1481.556324	370.715484	-16.943957	1561.727572	520.223997	71.206311	946.497267	215.319496	-79.935123	943.053574	222.038370	102.875028	539.118819	353.256800	-107.413098	509.004891	249.257784	81.265124	228.639091	148.427841	-115.842811	179.171239	37.179880	74.119584	209.123398	103.806889	-115.217973	151.696914	-9.368433	67.251414	98.933771	238.260949	-110.211675	67.748924	159.034114	131.042838	1467.019437	295.991254	-192.950991	1430.113731	349.784727	214.544880	1262.570287	140.270177	-267.076936	1170.494018	288.552283	215.804765	1121.952276	304.033791	-144.566915	1090.116867	470.152524
5847	58.46000	-3.606658	943.668400	218.912294	-24.356851	1480.224078	370.506534	-15.236496	1560.361247	520.066885	71.930744	945.389197	215.751080	-79.144060	941.947602	222.073517	102.309763	538.973088	361.555970	-108.072647	506.535423	243.317082	80.689591	225.698201	162.001504	-116.364303	183.685150	21.690670	73.874890	205.202427	117.848141	-115.372576	158.182579	-25.556968	65.307925	99.317212	254.925188	-112.051126	67.572998	137.677063	131.723725	1465.957527	293.741374	-192.225833	1427.902104	351.211207	213.998962	1263.138827	133.295283	-264.397781	1165.314805	294.212520	222.284552	1117.821837	296.505217	-137.318716	1089.810702	478.358312
5848	58.47000	-1.056708	942.757332	217.968589	-21.503806	1479.183099	369.537221	-12.203044	1559.271811	519.248768	74.428900	944.561367	214.802884	-76.542277	940.953297	221.134289	103.539985	537.885229	365.652579	-106.566298	505.867172	241.940135	81.786173	220.501821	171.908697	-117.309772	188.099492	10.528988	75.238638	198.500523	128.216818	-116.361241	164.193554	-37.666956	66.489654	98.696654	269.979570	-114.056205	67.230619	122.589815	134.348344	1465.001310	291.950956	-189.609447	1426.338290	350.825802	215.967053	1262.893253	128.863186	-260.763525	1162.407334	295.156157	227.555807	1114.138382	291.736762	-133.057093	1088.675326	480.550515
